<?xml version="1.0"?>
<svg xmlns="http://www.w3.org/2000/svg" viewBox="0 0 16 16">
    <path fill="#FFF" style="line-height:normal;text-indent:0;text-align:start;text-decoration-line:none;text-decoration-style:solid;text-decoration-color:#000;text-transform:none;block-progression:tb;isolation:auto;mix-blend-mode:normal" d="M 7.5 1 C 5.0206409 1 3 3.0206409 3 5.5 C 3 7.8079986 4.7579728 9.6961563 7 9.9492188 L 7 11 L 1 11 L 1 12 L 7.4199219 12 A 0.50005 0.50005 0 0 0 7.5820312 12 L 14 12 L 14 11 L 8 11 L 8 9.9492188 C 10.242027 9.6961563 12 7.8079986 12 5.5 C 12 3.0206409 9.9793591 1 7.5 1 z M 7.5 2 C 9.4389189 2 11 3.5610811 11 5.5 C 11 7.4214842 9.4654367 8.9664134 7.5507812 8.9941406 A 0.50005 0.50005 0 0 0 7.4921875 8.9921875 A 0.50005 0.50005 0 0 0 7.453125 8.9960938 C 5.5365302 8.9705546 4 7.422876 4 5.5 C 4 3.5610811 5.5610811 2 7.5 2 z M 8.4902344 3.9960938 A 0.50005 0.50005 0 0 0 8.1464844 4.1464844 L 7.1464844 5.1464844 A 0.50005 0.50005 0 1 0 7.8535156 5.8535156 L 8.8535156 4.8535156 A 0.50005 0.50005 0 0 0 8.4902344 3.9960938 z M 1 13 L 1 14 L 14 14 L 14 13 L 1 13 z" font-weight="400" font-family="sans-serif" white-space="normal" overflow="visible"/>
</svg>
