<?xml version="1.0" encoding="iso-8859-1"?>
<!-- Generator: Adobe Illustrator 19.0.0, SVG Export Plug-In . SVG Version: 6.00 Build 0)  -->
<svg xmlns="http://www.w3.org/2000/svg" xmlns:xlink="http://www.w3.org/1999/xlink" version="1.1" id="Layer_1" x="0px" y="0px" viewBox="0 0 512.001 512.001" style="enable-background:new 0 0 512.001 512.001;" xml:space="preserve" width="512px" height="512px">
<g>
	<g>
		<path d="M413.289,200.718c-0.016-0.021-0.03-0.041-0.045-0.061C407.69,193.171,277.11,17.178,267.635,5.534    c-2.918-3.587-7.379-5.634-11.949-5.53c-4.623,0.097-8.942,2.32-11.708,6.026L100.036,198.936    C74.498,232.909,61,273.39,61,316.001c0,108.075,87.477,196,195,196s195-87.925,195-196    C451,274.189,437.96,234.324,413.289,200.718z M256,482.001c-90.981,0-165-74.467-165-166c0-36.057,11.417-70.304,33.049-99.081    l132.08-177.01c27.492,36.534,94.768,127.061,133.009,178.605C409.984,246.929,421,280.637,421,316.001    C421,407.534,346.981,482.001,256,482.001z" fill="#FFFFFF"/>
	</g>
</g>
<g>
</g>
<g>
</g>
<g>
</g>
<g>
</g>
<g>
</g>
<g>
</g>
<g>
</g>
<g>
</g>
<g>
</g>
<g>
</g>
<g>
</g>
<g>
</g>
<g>
</g>
<g>
</g>
<g>
</g>
</svg>
